<?xml version="1.0" encoding="UTF-8"?>
<!DOCTYPE svg PUBLIC "-//W3C//DTD SVG 1.1//EN" "http://www.w3.org/Graphics/SVG/1.1/DTD/svg11.dtd">
<svg xmlns="http://www.w3.org/2000/svg" version="1.1" width="2020px" height="2020px" style="shape-rendering:geometricPrecision; text-rendering:geometricPrecision; image-rendering:optimizeQuality; fill-rule:evenodd; clip-rule:evenodd" xmlns:xlink="http://www.w3.org/1999/xlink">
<g><path style="opacity:0.999" fill="#febd98" d="M 985.5,-0.5 C 1001.17,-0.5 1016.83,-0.5 1032.5,-0.5C 1316.57,10.6506 1556.07,118.651 1751,323.5C 1920.86,511.093 2010.36,732.093 2019.5,986.5C 2019.5,1002.17 2019.5,1017.83 2019.5,1033.5C 2010.11,1290.5 1918.94,1513.17 1746,1701.5C 1557.32,1897.56 1326.49,2003.56 1053.5,2019.5C 1023.83,2019.5 994.167,2019.5 964.5,2019.5C 694.809,2003.54 465.975,1899.54 278,1707.5C 106.469,1524.27 13.6355,1306.6 -0.5,1054.5C -0.5,1024.83 -0.5,995.167 -0.5,965.5C 15.437,692.509 121.437,461.676 317.5,273C 505.834,100.061 728.501,8.89446 985.5,-0.5 Z"/></g>
<g><path style="opacity:1" fill="#908fb1" d="M 1336.5,586.5 C 1349.31,592.4 1357.15,602.4 1360,616.5C 1360.67,910.167 1360.67,1203.83 1360,1497.5C 1357.45,1513.86 1348.95,1525.86 1334.5,1533.5C 1298.02,1544.34 1267.19,1535.68 1242,1507.5C 1076.61,1259.62 911.445,1011.62 746.5,763.5C 737.496,750.32 728.663,736.987 720,723.5C 719.667,982.833 719.333,1242.17 719,1501.5C 716.528,1516.11 708.695,1526.44 695.5,1532.5C 680.126,1537.83 664.793,1537.67 649.5,1532C 638.526,1526.01 631.692,1516.85 629,1504.5C 628.333,1211.17 628.333,917.833 629,624.5C 635.933,596.768 653.767,583.101 682.5,583.5C 692.347,583.642 702.014,584.975 711.5,587.5C 721.802,590.82 731.135,595.986 739.5,603C 752.5,615.324 764,628.824 774,643.5C 939,892.5 1104,1141.5 1269,1390.5C 1269.5,1377.84 1269.67,1365.17 1269.5,1352.5C 1269.5,1108.17 1269.5,863.833 1269.5,619.5C 1271.43,600.791 1281.43,588.958 1299.5,584C 1312.09,581.518 1324.42,582.352 1336.5,586.5 Z"/></g>
<g><path style="opacity:1" fill="#bcbbd0" d="M 1336.5,586.5 C 1348.48,585.578 1359.82,587.744 1370.5,593C 1378.75,598.329 1383.92,605.829 1386,615.5C 1386.67,909.5 1386.67,1203.5 1386,1497.5C 1382.17,1517.33 1370.34,1529.16 1350.5,1533C 1345.18,1533.5 1339.84,1533.67 1334.5,1533.5C 1348.95,1525.86 1357.45,1513.86 1360,1497.5C 1360.67,1203.83 1360.67,910.167 1360,616.5C 1357.15,602.4 1349.31,592.4 1336.5,586.5 Z"/></g>
<g><path style="opacity:1" fill="#bcbbd0" d="M 711.5,587.5 C 737.701,586.856 759.534,596.189 777,615.5C 784.047,623.545 790.713,631.878 797,640.5C 954.092,877.024 1110.93,1113.69 1267.5,1350.5C 1267.83,1351.5 1268.5,1352.17 1269.5,1352.5C 1269.67,1365.17 1269.5,1377.84 1269,1390.5C 1104,1141.5 939,892.5 774,643.5C 764,628.824 752.5,615.324 739.5,603C 731.135,595.986 721.802,590.82 711.5,587.5 Z"/></g>
<g><path style="opacity:1" fill="#e2b29f" d="M 1269.5,619.5 C 1269.5,863.833 1269.5,1108.17 1269.5,1352.5C 1268.5,1352.17 1267.83,1351.5 1267.5,1350.5C 1268.17,1106.83 1268.83,863.167 1269.5,619.5 Z"/></g>
<g><path style="opacity:1" fill="#bcbbd0" d="M 746.5,763.5 C 745.667,1009.67 745.167,1256 745,1502.5C 741.602,1517.56 732.436,1527.06 717.5,1531C 710.214,1532.19 702.881,1532.69 695.5,1532.5C 708.695,1526.44 716.528,1516.11 719,1501.5C 719.333,1242.17 719.667,982.833 720,723.5C 728.663,736.987 737.496,750.32 746.5,763.5 Z"/></g>
</svg>
