<?xml version="1.0" encoding="UTF-8"?>
<!DOCTYPE svg PUBLIC "-//W3C//DTD SVG 1.1//EN" "http://www.w3.org/Graphics/SVG/1.1/DTD/svg11.dtd">
<svg xmlns="http://www.w3.org/2000/svg" version="1.1" width="5334px" height="4267px" style="shape-rendering:geometricPrecision; text-rendering:geometricPrecision; image-rendering:optimizeQuality; fill-rule:evenodd; clip-rule:evenodd" xmlns:xlink="http://www.w3.org/1999/xlink">
<g><path style="opacity:0.255" fill="#febd98" d="M -0.5,-0.5 C 1777.5,-0.5 3555.5,-0.5 5333.5,-0.5C 5333.5,1421.83 5333.5,2844.17 5333.5,4266.5C 3555.5,4266.5 1777.5,4266.5 -0.5,4266.5C -0.5,2844.17 -0.5,1421.83 -0.5,-0.5 Z"/></g>
<g><path style="opacity:1" fill="#928fb1" d="M 2209.5,1730.5 C 2221.35,1734.67 2233.35,1738.67 2245.5,1742.5C 2246.09,1746.97 2245.42,1750.97 2243.5,1754.5C 2232.56,1750.86 2221.56,1747.52 2210.5,1744.5C 2076.32,1709.79 1946.65,1721.95 1821.5,1781C 1742.34,1819.66 1679.17,1876.16 1632,1950.5C 1571.64,2054.95 1564.64,2162.95 1611,2274.5C 1641.83,2341.01 1687,2395.84 1746.5,2439C 1852.35,2512.89 1970.02,2546.56 2099.5,2540C 2141.31,2537.34 2182.31,2530.17 2222.5,2518.5C 2224.42,2522.03 2225.09,2526.03 2224.5,2530.5C 2221.34,2531.33 2218.34,2532.33 2215.5,2533.5C 2077.94,2568.81 1944.94,2556.31 1816.5,2496C 1733.97,2456.14 1668.47,2397.3 1620,2319.5C 1559.09,2211.91 1552.09,2100.91 1599,1986.5C 1637.16,1905.67 1694.32,1841.84 1770.5,1795C 1886.62,1725.71 2011.96,1700.04 2146.5,1718C 2167.68,1721.38 2188.68,1725.55 2209.5,1730.5 Z"/></g>
<g><path style="opacity:1" fill="#928fb1" d="M 3079.5,2521.5 C 3078.21,2517.07 3078.21,2512.73 3079.5,2508.5C 3081.83,2509.17 3084.17,2509.83 3086.5,2510.5C 3182.37,2543.59 3280.04,2549.75 3379.5,2529C 3480.31,2508.19 3567.48,2462.35 3641,2391.5C 3696.8,2335.25 3732.13,2267.91 3747,2189.5C 3760,2102.48 3743.67,2021.48 3698,1946.5C 3656.3,1881.13 3601.47,1829.96 3533.5,1793C 3423.62,1734.76 3306.96,1714.09 3183.5,1731C 3146.75,1736.6 3111.08,1746.1 3076.5,1759.5C 3065.42,1763.64 3054.42,1767.97 3043.5,1772.5C 3043.5,1768.17 3043.5,1763.83 3043.5,1759.5C 3054.17,1754.83 3064.83,1750.17 3075.5,1745.5C 3212.6,1698.75 3348.6,1701.91 3483.5,1755C 3559.9,1786.41 3624.73,1833.58 3678,1896.5C 3756.86,1995.25 3781.19,2106.25 3751,2229.5C 3728.37,2303.95 3688.2,2367.12 3630.5,2419C 3556.02,2483.23 3470.02,2524.57 3372.5,2543C 3272.8,2562.26 3175.13,2555.09 3079.5,2521.5 Z"/></g>
<g><path style="opacity:1" fill="#eab59c" d="M 2263.5,1743.5 C 2263.5,1745.17 2263.5,1746.83 2263.5,1748.5C 2257.49,1746.49 2251.49,1744.49 2245.5,1742.5C 2233.35,1738.67 2221.35,1734.67 2209.5,1730.5C 2210.4,1729.79 2210.74,1728.79 2210.5,1727.5C 2219.66,1728.94 2228.66,1731.11 2237.5,1734C 2246.05,1737.46 2254.71,1740.63 2263.5,1743.5 Z"/></g>
<g><path style="opacity:1" fill="#9a93af" d="M 2245.5,1742.5 C 2251.49,1744.49 2257.49,1746.49 2263.5,1748.5C 2266.36,1749.98 2269.36,1751.31 2272.5,1752.5C 2272.5,1756.83 2272.5,1761.17 2272.5,1765.5C 2263.82,1762.49 2255.16,1759.49 2246.5,1756.5C 2245.5,1755.83 2244.5,1755.17 2243.5,1754.5C 2245.42,1750.97 2246.09,1746.97 2245.5,1742.5 Z"/></g>
<g><path style="opacity:1" fill="#e3b29e" d="M 2263.5,1743.5 C 2303.4,1758.45 2341.4,1777.12 2377.5,1799.5C 2377.5,1801.83 2377.5,1804.17 2377.5,1806.5C 2370.17,1802.17 2362.83,1797.83 2355.5,1793.5C 2346.42,1787.77 2337.09,1782.43 2327.5,1777.5C 2321.09,1773.96 2314.42,1770.96 2307.5,1768.5C 2296.26,1762.38 2284.59,1757.05 2272.5,1752.5C 2269.36,1751.31 2266.36,1749.98 2263.5,1748.5C 2263.5,1746.83 2263.5,1745.17 2263.5,1743.5 Z"/></g>
<g><path style="opacity:1" fill="#efb79b" d="M 2210.5,1744.5 C 2221.56,1747.52 2232.56,1750.86 2243.5,1754.5C 2244.5,1755.17 2245.5,1755.83 2246.5,1756.5C 2246.56,1757.61 2246.89,1758.61 2247.5,1759.5C 2235.55,1755.57 2223.55,1751.74 2211.5,1748C 2210.66,1746.99 2210.33,1745.82 2210.5,1744.5 Z"/></g>
<g><path style="opacity:1" fill="#9a93af" d="M 3043.5,1759.5 C 3043.5,1763.83 3043.5,1768.17 3043.5,1772.5C 3037.57,1775.47 3031.57,1778.47 3025.5,1781.5C 3023.29,1782.77 3020.95,1783.77 3018.5,1784.5C 3018.5,1780.17 3018.5,1775.83 3018.5,1771.5C 3026.4,1766.72 3034.73,1762.72 3043.5,1759.5 Z"/></g>
<g><path style="opacity:1" fill="#a597ac" d="M 2272.5,1752.5 C 2284.59,1757.05 2296.26,1762.38 2307.5,1768.5C 2308.09,1772.97 2307.42,1776.97 2305.5,1780.5C 2294.37,1775.68 2283.37,1770.68 2272.5,1765.5C 2272.5,1761.17 2272.5,1756.83 2272.5,1752.5 Z"/></g>
<g><path style="opacity:1" fill="#e6b39d" d="M 2246.5,1756.5 C 2255.16,1759.49 2263.82,1762.49 2272.5,1765.5C 2283.37,1770.68 2294.37,1775.68 2305.5,1780.5C 2312.52,1784.67 2319.85,1788.34 2327.5,1791.5C 2336.57,1797.23 2345.9,1802.56 2355.5,1807.5C 2364.54,1813.86 2373.88,1819.86 2383.5,1825.5C 2394.55,1833.88 2405.88,1841.88 2417.5,1849.5C 2427.83,1858.17 2438.17,1866.83 2448.5,1875.5C 2447.83,1875.5 2447.17,1875.5 2446.5,1875.5C 2387.21,1825.32 2320.88,1786.65 2247.5,1759.5C 2246.89,1758.61 2246.56,1757.61 2246.5,1756.5 Z"/></g>
<g><path style="opacity:1" fill="#ad9baa" d="M 2307.5,1768.5 C 2314.42,1770.96 2321.09,1773.96 2327.5,1777.5C 2327.5,1782.17 2327.5,1786.83 2327.5,1791.5C 2319.85,1788.34 2312.52,1784.67 2305.5,1780.5C 2307.42,1776.97 2308.09,1772.97 2307.5,1768.5 Z"/></g>
<g><path style="opacity:1" fill="#a096ae" d="M 3018.5,1771.5 C 3018.5,1775.83 3018.5,1780.17 3018.5,1784.5C 3013.03,1787.74 3007.36,1790.74 3001.5,1793.5C 3001.5,1788.83 3001.5,1784.17 3001.5,1779.5C 3007.04,1776.56 3012.71,1773.9 3018.5,1771.5 Z"/></g>
<g><path style="opacity:1" fill="#ebb59c" d="M 3076.5,1759.5 C 3075.63,1761.72 3075.3,1764.05 3075.5,1766.5C 3058.59,1773.25 3041.92,1780.58 3025.5,1788.5C 3025.5,1786.17 3025.5,1783.83 3025.5,1781.5C 3031.57,1778.47 3037.57,1775.47 3043.5,1772.5C 3054.42,1767.97 3065.42,1763.64 3076.5,1759.5 Z"/></g>
<g><path style="opacity:1" fill="#e4b29e" d="M 3075.5,1745.5 C 3064.83,1750.17 3054.17,1754.83 3043.5,1759.5C 3034.73,1762.72 3026.4,1766.72 3018.5,1771.5C 3012.71,1773.9 3007.04,1776.56 3001.5,1779.5C 2991.5,1785.17 2981.5,1790.83 2971.5,1796.5C 2961.54,1802.47 2951.87,1808.81 2942.5,1815.5C 2936.15,1819.53 2929.82,1823.53 2923.5,1827.5C 2969.69,1792.89 3020.02,1765.23 3074.5,1744.5C 3075.11,1744.62 3075.44,1744.96 3075.5,1745.5 Z"/></g>
<g><path style="opacity:1" fill="#e4b29e" d="M 3025.5,1781.5 C 3025.5,1783.83 3025.5,1786.17 3025.5,1788.5C 2988.14,1807.83 2952.81,1830.17 2919.5,1855.5C 2918.83,1853.17 2918.17,1850.83 2917.5,1848.5C 2926.01,1842.41 2934.35,1836.08 2942.5,1829.5C 2952.51,1823.16 2962.51,1816.83 2972.5,1810.5C 2982.04,1804.57 2991.7,1798.9 3001.5,1793.5C 3007.36,1790.74 3013.03,1787.74 3018.5,1784.5C 3020.95,1783.77 3023.29,1782.77 3025.5,1781.5 Z"/></g>
<g><path style="opacity:1" fill="#b79fa8" d="M 2327.5,1777.5 C 2337.09,1782.43 2346.42,1787.77 2355.5,1793.5C 2355.5,1798.17 2355.5,1802.83 2355.5,1807.5C 2345.9,1802.56 2336.57,1797.23 2327.5,1791.5C 2327.5,1786.83 2327.5,1782.17 2327.5,1777.5 Z"/></g>
<g><path style="opacity:1" fill="#aa9aab" d="M 3001.5,1779.5 C 3001.5,1784.17 3001.5,1788.83 3001.5,1793.5C 2991.7,1798.9 2982.04,1804.57 2972.5,1810.5C 2971.51,1806.03 2971.18,1801.36 2971.5,1796.5C 2981.5,1790.83 2991.5,1785.17 3001.5,1779.5 Z"/></g>
<g><path style="opacity:1" fill="#c3a4a6" d="M 2355.5,1793.5 C 2362.83,1797.83 2370.17,1802.17 2377.5,1806.5C 2379.62,1808.4 2381.95,1810.07 2384.5,1811.5C 2384.82,1816.36 2384.49,1821.03 2383.5,1825.5C 2373.88,1819.86 2364.54,1813.86 2355.5,1807.5C 2355.5,1802.83 2355.5,1798.17 2355.5,1793.5 Z"/></g>
<g><path style="opacity:1" fill="#b79fa8" d="M 2971.5,1796.5 C 2971.18,1801.36 2971.51,1806.03 2972.5,1810.5C 2962.51,1816.83 2952.51,1823.16 2942.5,1829.5C 2942.5,1824.83 2942.5,1820.17 2942.5,1815.5C 2951.87,1808.81 2961.54,1802.47 2971.5,1796.5 Z"/></g>
<g><path style="opacity:1" fill="#cfaaa3" d="M 2384.5,1811.5 C 2396.13,1819.14 2407.47,1827.14 2418.5,1835.5C 2418.82,1840.36 2418.49,1845.03 2417.5,1849.5C 2405.88,1841.88 2394.55,1833.88 2383.5,1825.5C 2384.49,1821.03 2384.82,1816.36 2384.5,1811.5 Z"/></g>
<g><path style="opacity:1" fill="#c3a4a6" d="M 2942.5,1815.5 C 2942.5,1820.17 2942.5,1824.83 2942.5,1829.5C 2934.35,1836.08 2926.01,1842.41 2917.5,1848.5C 2917.17,1848.5 2916.83,1848.5 2916.5,1848.5C 2915.51,1844.03 2915.18,1839.36 2915.5,1834.5C 2918.17,1832.17 2920.83,1829.83 2923.5,1827.5C 2929.82,1823.53 2936.15,1819.53 2942.5,1815.5 Z"/></g>
<g><path style="opacity:1" fill="#eeb79b" d="M 2377.5,1799.5 C 2409.99,1820.08 2440.66,1843.08 2469.5,1868.5C 2469.5,1871.17 2469.5,1873.83 2469.5,1876.5C 2463.83,1871.83 2458.17,1867.17 2452.5,1862.5C 2441.77,1852.77 2430.43,1843.77 2418.5,1835.5C 2407.47,1827.14 2396.13,1819.14 2384.5,1811.5C 2381.95,1810.07 2379.62,1808.4 2377.5,1806.5C 2377.5,1804.17 2377.5,1801.83 2377.5,1799.5 Z"/></g>
<g><path style="opacity:1" fill="#dcafa0" d="M 2418.5,1835.5 C 2430.43,1843.77 2441.77,1852.77 2452.5,1862.5C 2452.82,1867.69 2452.49,1872.69 2451.5,1877.5C 2450.5,1876.83 2449.5,1876.17 2448.5,1875.5C 2438.17,1866.83 2427.83,1858.17 2417.5,1849.5C 2418.49,1845.03 2418.82,1840.36 2418.5,1835.5 Z"/></g>
<g><path style="opacity:1" fill="#d1aaa2" d="M 2915.5,1834.5 C 2915.18,1839.36 2915.51,1844.03 2916.5,1848.5C 2905.87,1857.16 2895.21,1865.82 2884.5,1874.5C 2883.35,1869.68 2883.18,1864.68 2884,1859.5C 2885.38,1858.29 2886.54,1856.96 2887.5,1855.5C 2895.73,1846.93 2905.06,1839.93 2915.5,1834.5 Z"/></g>
<g><path style="opacity:1" fill="#e4b29e" d="M 2452.5,1862.5 C 2458.17,1867.17 2463.83,1871.83 2469.5,1876.5C 2471.81,1878.14 2473.81,1880.14 2475.5,1882.5C 2475.82,1887.69 2475.49,1892.69 2474.5,1897.5C 2466.81,1890.8 2459.14,1884.14 2451.5,1877.5C 2452.49,1872.69 2452.82,1867.69 2452.5,1862.5 Z"/></g>
<g><path style="opacity:1" fill="#dcafa0" d="M 2887.5,1855.5 C 2886.54,1856.96 2885.38,1858.29 2884,1859.5C 2883.18,1864.68 2883.35,1869.68 2884.5,1874.5C 2874.17,1883.83 2863.83,1893.17 2853.5,1902.5C 2852.35,1897.35 2852.18,1892.02 2853,1886.5C 2853.72,1885.96 2854.22,1885.29 2854.5,1884.5C 2864.6,1873.72 2875.6,1864.06 2887.5,1855.5 Z"/></g>
<g><path style="opacity:1" fill="#eeb79b" d="M 2916.5,1848.5 C 2916.83,1848.5 2917.17,1848.5 2917.5,1848.5C 2918.17,1850.83 2918.83,1853.17 2919.5,1855.5C 2890.56,1878.18 2862.89,1902.51 2836.5,1928.5C 2836.81,1925.29 2836.48,1922.29 2835.5,1919.5C 2841.5,1913.83 2847.5,1908.17 2853.5,1902.5C 2863.83,1893.17 2874.17,1883.83 2884.5,1874.5C 2895.21,1865.82 2905.87,1857.16 2916.5,1848.5 Z"/></g>
<g><path style="opacity:1" fill="#e4b29e" d="M 2854.5,1884.5 C 2854.22,1885.29 2853.72,1885.96 2853,1886.5C 2852.18,1892.02 2852.35,1897.35 2853.5,1902.5C 2847.5,1908.17 2841.5,1913.83 2835.5,1919.5C 2834.69,1920.73 2833.69,1921.73 2832.5,1922.5C 2831.35,1917.35 2831.18,1912.02 2832,1906.5C 2834.78,1904.23 2836.95,1901.56 2838.5,1898.5C 2843.53,1893.47 2848.86,1888.8 2854.5,1884.5 Z"/></g>
<g><path style="opacity:1" fill="#f6ba9a" d="M 2469.5,1868.5 C 2490.04,1885.53 2509.54,1903.86 2528,1923.5C 2529.17,1927.05 2529.84,1930.71 2530,1934.5C 2542.47,1948.13 2554.47,1962.13 2566,1976.5C 2566.67,1982.83 2566.67,1989.17 2566,1995.5C 2529.33,1952.33 2489.5,1912.33 2446.5,1875.5C 2447.17,1875.5 2447.83,1875.5 2448.5,1875.5C 2449.5,1876.17 2450.5,1876.83 2451.5,1877.5C 2459.14,1884.14 2466.81,1890.8 2474.5,1897.5C 2491.44,1913.94 2508.27,1930.6 2525,1947.5C 2525.67,1941.83 2525.67,1936.17 2525,1930.5C 2509.6,1913.26 2493.1,1897.26 2475.5,1882.5C 2473.81,1880.14 2471.81,1878.14 2469.5,1876.5C 2469.5,1873.83 2469.5,1871.17 2469.5,1868.5 Z"/></g>
<g><path style="opacity:1" fill="#eeb79b" d="M 2475.5,1882.5 C 2493.1,1897.26 2509.6,1913.26 2525,1930.5C 2525.67,1936.17 2525.67,1941.83 2525,1947.5C 2508.27,1930.6 2491.44,1913.94 2474.5,1897.5C 2475.49,1892.69 2475.82,1887.69 2475.5,1882.5 Z"/></g>
<g><path style="opacity:1" fill="#f6ba9a" d="M 2835.5,1919.5 C 2836.48,1922.29 2836.81,1925.29 2836.5,1928.5C 2818.17,1948.33 2800,1968.33 2782,1988.5C 2781.67,1985.5 2781.33,1982.5 2781,1979.5C 2770,1992.5 2759,2005.5 2748,2018.5C 2747.81,2012.25 2747.31,2006.09 2746.5,2000C 2747.98,1998.43 2749.65,1997.09 2751.5,1996C 2751.17,1995.67 2750.83,1995.33 2750.5,1995C 2761.62,1981.04 2773.29,1967.54 2785.5,1954.5C 2785.33,1960.51 2785.5,1966.51 2786,1972.5C 2801.34,1955.66 2816.84,1939 2832.5,1922.5C 2833.69,1921.73 2834.69,1920.73 2835.5,1919.5 Z"/></g>
<g><path style="opacity:1" fill="#efb79b" d="M 2838.5,1898.5 C 2836.95,1901.56 2834.78,1904.23 2832,1906.5C 2831.18,1912.02 2831.35,1917.35 2832.5,1922.5C 2816.84,1939 2801.34,1955.66 2786,1972.5C 2785.5,1966.51 2785.33,1960.51 2785.5,1954.5C 2801.71,1934.62 2819.38,1915.95 2838.5,1898.5 Z"/></g>
<g><path style="opacity:1" fill="#a38eb1" d="M 2991.5,2007.5 C 2994.04,2007.1 2996.21,2007.77 2998,2009.5C 2998.83,2040.51 2998.67,2071.51 2997.5,2102.5C 2993.58,2104.42 2990.75,2103.42 2989,2099.5C 2978.91,2105.22 2968.07,2107.06 2956.5,2105C 2945.86,2103.02 2939.02,2096.85 2936,2086.5C 2928.86,2052.65 2942.36,2037.49 2976.5,2041C 2981.03,2042.51 2985.2,2044.68 2989,2047.5C 2989.33,2034.83 2989.67,2022.17 2990,2009.5C 2990.72,2008.96 2991.22,2008.29 2991.5,2007.5 Z"/></g>
<g><path style="opacity:1" fill="#a58fb1" d="M 3069.5,2017.5 C 3073.26,2017.07 3076.76,2017.74 3080,2019.5C 3082.62,2028.56 3079.12,2032.39 3069.5,2031C 3064.19,2026.38 3064.19,2021.88 3069.5,2017.5 Z"/></g>
<g><path style="opacity:1" fill="#a48fb1" d="M 2013.5,2039.5 C 2025.51,2038 2036.51,2040.5 2046.5,2047C 2050.18,2051.19 2052.68,2056.02 2054,2061.5C 2054.82,2075.41 2054.66,2089.24 2053.5,2103C 2050.65,2103.94 2048.15,2103.44 2046,2101.5C 2045.67,2088.17 2045.33,2074.83 2045,2061.5C 2041.33,2050.91 2033.83,2046.24 2022.5,2047.5C 2011.22,2046.31 2003.72,2050.98 2000,2061.5C 1999.67,2075.17 1999.33,2088.83 1999,2102.5C 1996.08,2104.01 1993.42,2103.68 1991,2101.5C 1990.33,2081.83 1990.33,2062.17 1991,2042.5C 1996.77,2038.89 1999.77,2040.56 2000,2047.5C 2003.96,2043.8 2008.46,2041.14 2013.5,2039.5 Z"/></g>
<g><path style="opacity:1" fill="#a48fb1" d="M 2828.5,2039.5 C 2840.51,2038 2851.51,2040.5 2861.5,2047C 2865.18,2051.19 2867.68,2056.02 2869,2061.5C 2869.82,2075.41 2869.66,2089.24 2868.5,2103C 2865.65,2103.94 2863.15,2103.44 2861,2101.5C 2860.67,2088.17 2860.33,2074.83 2860,2061.5C 2856.33,2050.91 2848.83,2046.24 2837.5,2047.5C 2826.22,2046.31 2818.72,2050.98 2815,2061.5C 2814.67,2075.17 2814.33,2088.83 2814,2102.5C 2811.08,2104.01 2808.42,2103.68 2806,2101.5C 2805.33,2081.83 2805.33,2062.17 2806,2042.5C 2811.77,2038.89 2814.77,2040.56 2815,2047.5C 2818.96,2043.8 2823.46,2041.14 2828.5,2039.5 Z"/></g>
<g><path style="opacity:1" fill="#a48fb1" d="M 3170.5,2039.5 C 3182.51,2038 3193.51,2040.5 3203.5,2047C 3207.18,2051.19 3209.68,2056.02 3211,2061.5C 3211.82,2075.41 3211.66,2089.24 3210.5,2103C 3207.65,2103.94 3205.15,2103.44 3203,2101.5C 3202.67,2088.17 3202.33,2074.83 3202,2061.5C 3198.33,2050.91 3190.83,2046.24 3179.5,2047.5C 3168.22,2046.31 3160.72,2050.98 3157,2061.5C 3156.67,2075.17 3156.33,2088.83 3156,2102.5C 3153.08,2104.01 3150.42,2103.68 3148,2101.5C 3147.33,2081.83 3147.33,2062.17 3148,2042.5C 3153.77,2038.89 3156.77,2040.56 3157,2047.5C 3160.96,2043.8 3165.46,2041.14 3170.5,2039.5 Z"/></g>
<g><path style="opacity:1" fill="#a48fb1" d="M 2140.5,2040.5 C 2147.84,2040.33 2155.17,2040.5 2162.5,2041C 2180.34,2046.04 2187.01,2057.37 2182.5,2075C 2181.5,2075.33 2180.5,2075.67 2179.5,2076C 2162.5,2076.5 2145.5,2076.67 2128.5,2076.5C 2128.05,2088.55 2133.72,2095.72 2145.5,2098C 2150.83,2098.67 2156.17,2098.67 2161.5,2098C 2166.62,2096.03 2171.78,2094.19 2177,2092.5C 2178.11,2092.59 2179.11,2092.92 2180,2093.5C 2180.67,2095.5 2180.67,2097.5 2180,2099.5C 2175.48,2102.12 2170.65,2103.95 2165.5,2105C 2130.06,2110.56 2114.9,2095.73 2120,2060.5C 2123.42,2050.25 2130.25,2043.58 2140.5,2040.5 Z"/></g>
<g><path style="opacity:1" fill="#a48fb1" d="M 2240.5,2039.5 C 2242.79,2039.24 2244.96,2039.58 2247,2040.5C 2254.53,2058.09 2261.86,2075.75 2269,2093.5C 2271.77,2098.82 2274.11,2098.48 2276,2092.5C 2282.72,2075.39 2289.72,2058.39 2297,2041.5C 2299.67,2038.83 2302.33,2038.83 2305,2041.5C 2305.4,2045.32 2304.73,2048.98 2303,2052.5C 2295.61,2069.44 2288.11,2086.27 2280.5,2103C 2274.55,2106.45 2268.71,2106.28 2263,2102.5C 2255,2083.83 2247,2065.17 2239,2046.5C 2238.17,2043.83 2238.67,2041.5 2240.5,2039.5 Z"/></g>
<g><path style="opacity:1" fill="#a48fb1" d="M 2385.5,2040.5 C 2392.84,2040.33 2400.17,2040.5 2407.5,2041C 2425.34,2046.04 2432.01,2057.37 2427.5,2075C 2426.5,2075.33 2425.5,2075.67 2424.5,2076C 2407.5,2076.5 2390.5,2076.67 2373.5,2076.5C 2373.05,2088.55 2378.72,2095.72 2390.5,2098C 2395.83,2098.67 2401.17,2098.67 2406.5,2098C 2411.62,2096.03 2416.78,2094.19 2422,2092.5C 2423.11,2092.59 2424.11,2092.92 2425,2093.5C 2425.67,2095.5 2425.67,2097.5 2425,2099.5C 2420.48,2102.12 2415.65,2103.95 2410.5,2105C 2375.06,2110.56 2359.9,2095.73 2365,2060.5C 2368.42,2050.25 2375.25,2043.58 2385.5,2040.5 Z"/></g>
<g><path style="opacity:1" fill="#a58fb1" d="M 2519.5,2039.5 C 2526.51,2039.33 2533.51,2039.5 2540.5,2040C 2542.4,2041.81 2542.9,2043.97 2542,2046.5C 2534.58,2047.32 2527.08,2047.82 2519.5,2048C 2510.89,2050.94 2505.39,2056.77 2503,2065.5C 2502.67,2077.83 2502.33,2090.17 2502,2102.5C 2499.53,2103.78 2497.03,2103.78 2494.5,2102.5C 2493.35,2082.54 2493.18,2062.54 2494,2042.5C 2500.24,2039.03 2503.24,2041.03 2503,2048.5C 2507.52,2043.5 2513.02,2040.5 2519.5,2039.5 Z"/></g>
<g><path style="opacity:1" fill="#a48fb1" d="M 2697.5,2040.5 C 2704.84,2040.33 2712.17,2040.5 2719.5,2041C 2737.34,2046.04 2744.01,2057.37 2739.5,2075C 2738.5,2075.33 2737.5,2075.67 2736.5,2076C 2719.5,2076.5 2702.5,2076.67 2685.5,2076.5C 2685.05,2088.55 2690.72,2095.72 2702.5,2098C 2707.83,2098.67 2713.17,2098.67 2718.5,2098C 2723.62,2096.03 2728.78,2094.19 2734,2092.5C 2735.11,2092.59 2736.11,2092.92 2737,2093.5C 2737.67,2095.5 2737.67,2097.5 2737,2099.5C 2732.48,2102.12 2727.65,2103.95 2722.5,2105C 2687.06,2110.56 2671.9,2095.73 2677,2060.5C 2680.42,2050.25 2687.25,2043.58 2697.5,2040.5 Z"/></g>
<g><path style="opacity:1" fill="#a28eb1" d="M 3071.5,2039.5 C 3074.04,2039.1 3076.21,2039.77 3078,2041.5C 3078.67,2061.83 3078.67,2082.17 3078,2102.5C 3075.33,2103.83 3072.67,2103.83 3070,2102.5C 3069.33,2082.17 3069.33,2061.83 3070,2041.5C 3070.72,2040.96 3071.22,2040.29 3071.5,2039.5 Z"/></g>
<g><path style="opacity:1" fill="#a48fb1" d="M 3331.5,2127.5 C 3330.83,2127.83 3330.17,2128.17 3329.5,2128.5C 3315.11,2135.02 3300.78,2135.02 3286.5,2128.5C 3285.83,2128.17 3285.17,2127.83 3284.5,2127.5C 3280.99,2125.57 3279.66,2122.57 3280.5,2118.5C 3282.53,2118.34 3284.53,2118.5 3286.5,2119C 3296.03,2124.97 3306.37,2126.97 3317.5,2125C 3328.23,2122.37 3333.23,2115.54 3332.5,2104.5C 3332.33,2101.83 3332.17,2099.17 3332,2096.5C 3322.12,2103.01 3311.29,2105.17 3299.5,2103C 3283.39,2098.31 3276.05,2087.48 3277.5,2070.5C 3276.59,2055.48 3283.26,2045.64 3297.5,2041C 3304.83,2040.33 3312.17,2040.33 3319.5,2041C 3324.3,2041.98 3328.47,2044.15 3332,2047.5C 3331.96,2041.54 3334.79,2039.38 3340.5,2041C 3341.66,2064.76 3341.83,2088.59 3341,2112.5C 3339.83,2118.85 3336.66,2123.85 3331.5,2127.5 Z"/></g>
<g><path style="opacity:1" fill="#fdbd98" d="M 2145.5,2047.5 C 2154.01,2046.51 2162.01,2048.01 2169.5,2052C 2174.76,2055.89 2176.93,2061.05 2176,2067.5C 2160.24,2068.49 2144.41,2068.82 2128.5,2068.5C 2128.67,2057 2134.34,2050 2145.5,2047.5 Z"/></g>
<g><path style="opacity:1" fill="#fdbd98" d="M 2390.5,2047.5 C 2399.01,2046.51 2407.01,2048.01 2414.5,2052C 2419.76,2055.89 2421.93,2061.05 2421,2067.5C 2405.24,2068.49 2389.41,2068.82 2373.5,2068.5C 2373.67,2057 2379.34,2050 2390.5,2047.5 Z"/></g>
<g><path style="opacity:1" fill="#fcbd98" d="M 2702.5,2047.5 C 2710.97,2046.74 2718.97,2048.24 2726.5,2052C 2731.76,2055.89 2733.93,2061.05 2733,2067.5C 2717.24,2068.49 2701.41,2068.82 2685.5,2068.5C 2685.67,2057 2691.34,2050 2702.5,2047.5 Z"/></g>
<g><path style="opacity:1" fill="#fdbd98" d="M 2960.5,2047.5 C 2970.3,2046.27 2978.8,2048.93 2986,2055.5C 2987.28,2057.72 2988.28,2060.05 2989,2062.5C 2993.11,2092.83 2980.61,2103.67 2951.5,2095C 2947.08,2091.68 2944.58,2087.18 2944,2081.5C 2943.15,2074.1 2943.49,2066.77 2945,2059.5C 2948.32,2052.94 2953.49,2048.94 2960.5,2047.5 Z"/></g>
<g><path style="opacity:1" fill="#fdbd98" d="M 3302.5,2047.5 C 3328.4,2046.26 3337.9,2058.26 3331,2083.5C 3326.63,2092.69 3319.3,2097.02 3309,2096.5C 3292.48,2095.8 3284.98,2087.14 3286.5,2070.5C 3285.71,2058.36 3291.05,2050.7 3302.5,2047.5 Z"/></g>
<g><path style="opacity:1" fill="#e6b19e" d="M 3284.5,2127.5 C 3285.17,2127.83 3285.83,2128.17 3286.5,2128.5C 2804,2129.5 2321.33,2129.83 1838.5,2129.5C 2320.5,2128.83 2802.5,2128.17 3284.5,2127.5 Z"/></g>
<g><path style="opacity:1" fill="#e7b29d" d="M 3331.5,2127.5 C 3385.5,2128.17 3439.5,2128.83 3493.5,2129.5C 3438.66,2129.83 3384,2129.5 3329.5,2128.5C 3330.17,2128.17 3330.83,2127.83 3331.5,2127.5 Z"/></g>
<g><path style="opacity:1" fill="#cfa5a5" d="M 3286.5,2128.5 C 3300.78,2135.02 3315.11,2135.02 3329.5,2128.5C 3384,2129.5 3438.66,2129.83 3493.5,2129.5C 3493.5,2131.83 3493.5,2134.17 3493.5,2136.5C 2941.83,2136.5 2390.17,2136.5 1838.5,2136.5C 1838.5,2134.17 1838.5,2131.83 1838.5,2129.5C 2321.33,2129.83 2804,2129.5 3286.5,2128.5 Z"/></g>
<g><path style="opacity:1" fill="#dcaca1" d="M 3493.5,2129.5 C 3494.47,2131.95 3494.81,2134.61 3494.5,2137.5C 2942.33,2137.83 2390.33,2137.5 1838.5,2136.5C 2390.17,2136.5 2941.83,2136.5 3493.5,2136.5C 3493.5,2134.17 3493.5,2131.83 3493.5,2129.5 Z"/></g>
<g><path style="opacity:1" fill="#a38eb1" d="M 2244.5,2188.5 C 2262.05,2187.39 2279.05,2189.89 2295.5,2196C 2301.76,2197.73 2303.76,2201.56 2301.5,2207.5C 2300.15,2208.9 2298.48,2209.56 2296.5,2209.5C 2288.55,2206.91 2280.55,2204.41 2272.5,2202C 2259.08,2199.73 2245.75,2200.06 2232.5,2203C 2216.86,2209.44 2212.03,2220.61 2218,2236.5C 2223.52,2243.68 2230.68,2248.52 2239.5,2251C 2257.91,2255.36 2275.57,2261.69 2292.5,2270C 2306.82,2278.48 2312.66,2290.98 2310,2307.5C 2305.45,2326.71 2293.29,2337.54 2273.5,2340C 2248.82,2344.62 2225.48,2340.95 2203.5,2329C 2201.67,2327.17 2199.83,2325.33 2198,2323.5C 2196.48,2318.2 2198.31,2314.87 2203.5,2313.5C 2211.73,2318.45 2220.4,2322.62 2229.5,2326C 2247.9,2331.4 2265.9,2330.4 2283.5,2323C 2293.53,2316.1 2297.36,2306.6 2295,2294.5C 2293.2,2289.07 2290.03,2284.57 2285.5,2281C 2279.78,2277.47 2273.78,2274.47 2267.5,2272C 2250.96,2268.26 2234.96,2262.93 2219.5,2256C 2203.61,2246.01 2198.11,2231.84 2203,2213.5C 2207.23,2203.6 2214.4,2196.77 2224.5,2193C 2231.08,2190.52 2237.74,2189.02 2244.5,2188.5 Z"/></g>
<g><path style="opacity:1" fill="#a38eb1" d="M 2658.5,2189.5 C 2675.02,2187.94 2690.68,2190.78 2705.5,2198C 2714.45,2204.3 2720.28,2212.8 2723,2223.5C 2725.97,2250.12 2726.3,2276.79 2724,2303.5C 2720.93,2322.57 2710.09,2334.74 2691.5,2340C 2673.94,2343.88 2656.61,2343.22 2639.5,2338C 2626.31,2332.81 2618.14,2323.31 2615,2309.5C 2613.38,2281.54 2613.04,2253.54 2614,2225.5C 2618.18,2206.65 2629.68,2195.15 2648.5,2191C 2652.03,2190.82 2655.36,2190.32 2658.5,2189.5 Z"/></g>
<g><path style="opacity:1" fill="#a38eb1" d="M 3021.5,2189.5 C 3024.86,2189.07 3027.7,2190.07 3030,2192.5C 3046.64,2215.97 3063.47,2239.31 3080.5,2262.5C 3097.83,2238.83 3115.17,2215.17 3132.5,2191.5C 3137.19,2188.75 3141.03,2189.75 3144,2194.5C 3144.74,2197.21 3144.07,2199.55 3142,2201.5C 3124,2226.17 3106,2250.83 3088,2275.5C 3087.67,2296.17 3087.33,2316.83 3087,2337.5C 3086.5,2338.67 3085.67,2339.5 3084.5,2340C 3081.83,2340.67 3079.17,2340.67 3076.5,2340C 3075.3,2339.1 3074.47,2337.93 3074,2336.5C 3073.67,2315.83 3073.33,2295.17 3073,2274.5C 3054.67,2249.5 3036.33,2224.5 3018,2199.5C 3017.33,2197.5 3017.33,2195.5 3018,2193.5C 3019.38,2192.29 3020.54,2190.96 3021.5,2189.5 Z"/></g>
<g><path style="opacity:1" fill="#a38eb1" d="M 2397.5,2191.5 C 2438.17,2191.33 2478.83,2191.5 2519.5,2192C 2523.62,2196.07 2523.29,2199.74 2518.5,2203C 2500.84,2203.5 2483.17,2203.67 2465.5,2203.5C 2465.67,2248.17 2465.5,2292.83 2465,2337.5C 2463.54,2339.89 2461.37,2340.89 2458.5,2340.5C 2455.68,2340.88 2453.51,2339.88 2452,2337.5C 2451.5,2292.83 2451.33,2248.17 2451.5,2203.5C 2433.83,2203.67 2416.16,2203.5 2398.5,2203C 2393.65,2199.57 2393.32,2195.74 2397.5,2191.5 Z"/></g>
<g><path style="opacity:1" fill="#a38eb1" d="M 2839.5,2338.5 C 2833.81,2339.47 2830.81,2337.14 2830.5,2331.5C 2830.33,2287.83 2830.5,2244.17 2831,2200.5C 2832.5,2196.33 2835.33,2193.5 2839.5,2192C 2859.5,2191.33 2879.5,2191.33 2899.5,2192C 2934.78,2196.71 2947.28,2216.21 2937,2250.5C 2928.31,2264.16 2915.81,2271.66 2899.5,2273C 2911.67,2291.17 2923.83,2309.33 2936,2327.5C 2937.46,2330.37 2937.79,2333.37 2937,2336.5C 2933.13,2339.13 2929.3,2339.13 2925.5,2336.5C 2911.7,2315.53 2897.7,2294.7 2883.5,2274C 2870.5,2273.5 2857.5,2273.33 2844.5,2273.5C 2844.67,2294.17 2844.5,2314.84 2844,2335.5C 2842.87,2337.14 2841.37,2338.14 2839.5,2338.5 Z"/></g>
<g><path style="opacity:1" fill="#febd98" d="M 2655.5,2201.5 C 2663.51,2201.33 2671.51,2201.5 2679.5,2202C 2696.68,2204.18 2707.18,2213.68 2711,2230.5C 2711.67,2253.17 2711.67,2275.83 2711,2298.5C 2708.49,2314.67 2699.33,2324.84 2683.5,2329C 2670.97,2331.45 2658.64,2330.78 2646.5,2327C 2636.73,2322.96 2630.56,2315.79 2628,2305.5C 2626.88,2292.71 2626.38,2279.88 2626.5,2267C 2626.4,2253.47 2626.9,2239.97 2628,2226.5C 2632.61,2213.05 2641.78,2204.72 2655.5,2201.5 Z"/></g>
<g><path style="opacity:1" fill="#febd98" d="M 2845.5,2203.5 C 2864.84,2203.33 2884.17,2203.5 2903.5,2204C 2922.74,2209.98 2929.91,2222.81 2925,2242.5C 2922.5,2250.33 2917.33,2255.5 2909.5,2258C 2905.65,2259.62 2901.65,2260.62 2897.5,2261C 2879.84,2261.5 2862.17,2261.67 2844.5,2261.5C 2844.18,2242.09 2844.51,2222.76 2845.5,2203.5 Z"/></g>
<g><path style="opacity:1" fill="#f5ba9a" d="M 2830.5,2331.5 C 2830.81,2337.14 2833.81,2339.47 2839.5,2338.5C 2839.39,2339.12 2839.06,2339.62 2838.5,2340C 2852.79,2355.13 2867.79,2369.3 2883.5,2382.5C 2882.53,2384.61 2882.2,2386.94 2882.5,2389.5C 2874.88,2383.88 2867.54,2377.88 2860.5,2371.5C 2846.86,2358.19 2833.19,2344.86 2819.5,2331.5C 2810.23,2321.06 2800.73,2310.72 2791,2300.5C 2790.33,2306.17 2790.33,2311.83 2791,2317.5C 2793.41,2320.4 2795.58,2323.4 2797.5,2326.5C 2782.16,2309.32 2767.32,2291.65 2753,2273.5C 2752.33,2267.17 2752.33,2260.83 2753,2254.5C 2764.3,2267.81 2775.64,2281.14 2787,2294.5C 2787.33,2291.83 2787.67,2289.17 2788,2286.5C 2801.67,2302 2815.83,2317 2830.5,2331.5 Z"/></g>
<g><path style="opacity:1" fill="#f0b89b" d="M 2819.5,2331.5 C 2818.35,2336.98 2818.18,2342.65 2819,2348.5C 2832.37,2361.37 2845.87,2374.04 2859.5,2386.5C 2868.17,2394.17 2876.83,2401.83 2885.5,2409.5C 2885.5,2410.17 2885.5,2410.83 2885.5,2411.5C 2854.03,2385.42 2824.7,2357.09 2797.5,2326.5C 2795.58,2323.4 2793.41,2320.4 2791,2317.5C 2790.33,2311.83 2790.33,2306.17 2791,2300.5C 2800.73,2310.72 2810.23,2321.06 2819.5,2331.5 Z"/></g>
<g><path style="opacity:1" fill="#f0b79b" d="M 2495.5,2365.5 C 2496.8,2359.73 2496.8,2354.07 2495.5,2348.5C 2503.17,2340.5 2510.83,2332.5 2518.5,2324.5C 2520.72,2323.8 2522.55,2322.46 2524,2320.5C 2524.67,2325.83 2524.67,2331.17 2524,2336.5C 2519.33,2341.83 2514.67,2347.17 2510,2352.5C 2505.15,2356.95 2500.31,2361.28 2495.5,2365.5 Z"/></g>
<g><path style="opacity:1" fill="#f5b99a" d="M 2429.5,2431.5 C 2429.5,2428.83 2429.5,2426.17 2429.5,2423.5C 2437.79,2417.21 2445.79,2410.54 2453.5,2403.5C 2463.96,2394.88 2474.29,2386.04 2484.5,2377C 2488.37,2373.3 2492.04,2369.46 2495.5,2365.5C 2500.31,2361.28 2505.15,2356.95 2510,2352.5C 2514.67,2347.17 2519.33,2341.83 2524,2336.5C 2524.67,2331.17 2524.67,2325.83 2524,2320.5C 2522.55,2322.46 2520.72,2323.8 2518.5,2324.5C 2533.99,2307.19 2549.49,2290.19 2565,2273.5C 2565.67,2279.5 2565.67,2285.5 2565,2291.5C 2553.37,2305.46 2541.37,2319.13 2529,2332.5C 2528.67,2336.17 2528.33,2339.83 2528,2343.5C 2497.73,2375.95 2464.9,2405.28 2429.5,2431.5 Z"/></g>
<g><path style="opacity:1" fill="#e6b39d" d="M 2819.5,2331.5 C 2833.19,2344.86 2846.86,2358.19 2860.5,2371.5C 2859.51,2376.31 2859.18,2381.31 2859.5,2386.5C 2845.87,2374.04 2832.37,2361.37 2819,2348.5C 2818.18,2342.65 2818.35,2336.98 2819.5,2331.5 Z"/></g>
<g><path style="opacity:1" fill="#e6b39d" d="M 2495.5,2348.5 C 2496.8,2354.07 2496.8,2359.73 2495.5,2365.5C 2492.04,2369.46 2488.37,2373.3 2484.5,2377C 2474.29,2386.04 2463.96,2394.88 2453.5,2403.5C 2453.67,2398.49 2453.5,2393.49 2453,2388.5C 2452.18,2389.82 2451.02,2390.49 2449.5,2390.5C 2464.78,2376.56 2480.11,2362.56 2495.5,2348.5 Z"/></g>
<g><path style="opacity:1" fill="#daaea0" d="M 2860.5,2371.5 C 2867.54,2377.88 2874.88,2383.88 2882.5,2389.5C 2885.69,2392.27 2888.69,2395.27 2891.5,2398.5C 2891.5,2403.5 2891.5,2408.5 2891.5,2413.5C 2889.5,2412.17 2887.5,2410.83 2885.5,2409.5C 2876.83,2401.83 2868.17,2394.17 2859.5,2386.5C 2859.18,2381.31 2859.51,2376.31 2860.5,2371.5 Z"/></g>
<g><path style="opacity:1" fill="#d2aba2" d="M 2891.5,2398.5 C 2897.06,2401.78 2902.06,2405.78 2906.5,2410.5C 2905.51,2414.97 2905.18,2419.64 2905.5,2424.5C 2900.43,2421.3 2895.76,2417.64 2891.5,2413.5C 2891.5,2408.5 2891.5,2403.5 2891.5,2398.5 Z"/></g>
<g><path style="opacity:1" fill="#dbaea0" d="M 2453.5,2403.5 C 2445.79,2410.54 2437.79,2417.21 2429.5,2423.5C 2426.17,2425.83 2422.83,2428.17 2419.5,2430.5C 2419.67,2425.49 2419.5,2420.49 2419,2415.5C 2418.33,2416.25 2417.5,2416.59 2416.5,2416.5C 2426.95,2407.11 2437.95,2398.45 2449.5,2390.5C 2451.02,2390.49 2452.18,2389.82 2453,2388.5C 2453.5,2393.49 2453.67,2398.49 2453.5,2403.5 Z"/></g>
<g><path style="opacity:1" fill="#c9a7a4" d="M 2906.5,2410.5 C 2917.12,2417.79 2927.45,2425.45 2937.5,2433.5C 2936.51,2437.97 2936.18,2442.64 2936.5,2447.5C 2925.86,2440.19 2915.53,2432.52 2905.5,2424.5C 2905.18,2419.64 2905.51,2414.97 2906.5,2410.5 Z"/></g>
<g><path style="opacity:1" fill="#d3aba2" d="M 2419.5,2430.5 C 2414.72,2434.4 2409.72,2438.07 2404.5,2441.5C 2404.5,2436.83 2404.5,2432.17 2404.5,2427.5C 2403.5,2427.5 2402.5,2427.5 2401.5,2427.5C 2406.21,2423.45 2411.21,2419.79 2416.5,2416.5C 2417.5,2416.59 2418.33,2416.25 2419,2415.5C 2419.5,2420.49 2419.67,2425.49 2419.5,2430.5 Z"/></g>
<g><path style="opacity:1" fill="#e5b39d" d="M 2883.5,2382.5 C 2933.8,2426.41 2989.47,2462.41 3050.5,2490.5C 3050.5,2492.5 3050.5,2494.5 3050.5,2496.5C 3043.62,2493.23 3036.62,2490.23 3029.5,2487.5C 3018.66,2481.58 3007.66,2475.92 2996.5,2470.5C 2986.17,2463.67 2975.5,2457.33 2964.5,2451.5C 2956.02,2444.76 2947.02,2438.76 2937.5,2433.5C 2927.45,2425.45 2917.12,2417.79 2906.5,2410.5C 2902.06,2405.78 2897.06,2401.78 2891.5,2398.5C 2888.69,2395.27 2885.69,2392.27 2882.5,2389.5C 2882.2,2386.94 2882.53,2384.61 2883.5,2382.5 Z"/></g>
<g><path style="opacity:1" fill="#bda2a7" d="M 2937.5,2433.5 C 2947.02,2438.76 2956.02,2444.76 2964.5,2451.5C 2964.5,2456.17 2964.5,2460.83 2964.5,2465.5C 2954.9,2459.89 2945.56,2453.89 2936.5,2447.5C 2936.18,2442.64 2936.51,2437.97 2937.5,2433.5 Z"/></g>
<g><path style="opacity:1" fill="#c7a6a5" d="M 2401.5,2427.5 C 2402.5,2427.5 2403.5,2427.5 2404.5,2427.5C 2404.5,2432.17 2404.5,2436.83 2404.5,2441.5C 2393.67,2449.08 2382.67,2456.41 2371.5,2463.5C 2371.82,2458.64 2371.49,2453.97 2370.5,2449.5C 2380.19,2443.32 2389.52,2436.66 2398.5,2429.5C 2400.03,2429.57 2401.03,2428.91 2401.5,2427.5 Z"/></g>
<g><path style="opacity:1" fill="#e5b39d" d="M 2885.5,2409.5 C 2887.5,2410.83 2889.5,2412.17 2891.5,2413.5C 2895.76,2417.64 2900.43,2421.3 2905.5,2424.5C 2915.53,2432.52 2925.86,2440.19 2936.5,2447.5C 2945.56,2453.89 2954.9,2459.89 2964.5,2465.5C 2974.67,2471.75 2985,2477.75 2995.5,2483.5C 3006.55,2489.69 3017.88,2495.36 3029.5,2500.5C 3044.6,2507.72 3059.93,2514.38 3075.5,2520.5C 3074.78,2520.92 3074.28,2521.58 3074,2522.5C 3004.73,2495.81 2941.9,2458.81 2885.5,2411.5C 2885.5,2410.83 2885.5,2410.17 2885.5,2409.5 Z"/></g>
<g><path style="opacity:1" fill="#bba1a7" d="M 2370.5,2449.5 C 2371.49,2453.97 2371.82,2458.64 2371.5,2463.5C 2362,2469.42 2352.33,2475.09 2342.5,2480.5C 2342.5,2475.83 2342.5,2471.17 2342.5,2466.5C 2351.8,2460.85 2361.13,2455.18 2370.5,2449.5 Z"/></g>
<g><path style="opacity:1" fill="#e6b39d" d="M 2429.5,2423.5 C 2429.5,2426.17 2429.5,2428.83 2429.5,2431.5C 2365.65,2481.42 2294.32,2517.09 2215.5,2538.5C 2215.5,2536.83 2215.5,2535.17 2215.5,2533.5C 2218.34,2532.33 2221.34,2531.33 2224.5,2530.5C 2242.06,2525.09 2259.39,2519.09 2276.5,2512.5C 2288.14,2507.68 2299.47,2502.35 2310.5,2496.5C 2321.42,2491.71 2332.09,2486.37 2342.5,2480.5C 2352.33,2475.09 2362,2469.42 2371.5,2463.5C 2382.67,2456.41 2393.67,2449.08 2404.5,2441.5C 2409.72,2438.07 2414.72,2434.4 2419.5,2430.5C 2422.83,2428.17 2426.17,2425.83 2429.5,2423.5 Z"/></g>
<g><path style="opacity:1" fill="#af9caa" d="M 2964.5,2451.5 C 2975.5,2457.33 2986.17,2463.67 2996.5,2470.5C 2995.52,2474.63 2995.18,2478.97 2995.5,2483.5C 2985,2477.75 2974.67,2471.75 2964.5,2465.5C 2964.5,2460.83 2964.5,2456.17 2964.5,2451.5 Z"/></g>
<g><path style="opacity:1" fill="#ae9caa" d="M 2342.5,2466.5 C 2342.5,2471.17 2342.5,2475.83 2342.5,2480.5C 2332.09,2486.37 2321.42,2491.71 2310.5,2496.5C 2310.5,2492.17 2310.5,2487.83 2310.5,2483.5C 2321.13,2477.85 2331.8,2472.18 2342.5,2466.5 Z"/></g>
<g><path style="opacity:1" fill="#a297ad" d="M 2996.5,2470.5 C 3007.66,2475.92 3018.66,2481.58 3029.5,2487.5C 3028.21,2491.73 3028.21,2496.07 3029.5,2500.5C 3017.88,2495.36 3006.55,2489.69 2995.5,2483.5C 2995.18,2478.97 2995.52,2474.63 2996.5,2470.5 Z"/></g>
<g><path style="opacity:1" fill="#a397ad" d="M 2310.5,2483.5 C 2310.5,2487.83 2310.5,2492.17 2310.5,2496.5C 2299.47,2502.35 2288.14,2507.68 2276.5,2512.5C 2276.82,2507.97 2276.48,2503.63 2275.5,2499.5C 2286.98,2493.93 2298.65,2488.6 2310.5,2483.5 Z"/></g>
<g><path style="opacity:1" fill="#e4b29e" d="M 2398.5,2429.5 C 2389.52,2436.66 2380.19,2443.32 2370.5,2449.5C 2361.13,2455.18 2351.8,2460.85 2342.5,2466.5C 2331.8,2472.18 2321.13,2477.85 2310.5,2483.5C 2298.65,2488.6 2286.98,2493.93 2275.5,2499.5C 2265.24,2503.36 2254.91,2507.03 2244.5,2510.5C 2244.41,2509.5 2244.75,2508.67 2245.5,2508C 2300.28,2488.61 2351.28,2462.45 2398.5,2429.5 Z"/></g>
<g><path style="opacity:1" fill="#efb79b" d="M 3050.5,2490.5 C 3062.14,2495.32 3073.81,2500.15 3085.5,2505C 3086.41,2506.7 3086.74,2508.53 3086.5,2510.5C 3084.17,2509.83 3081.83,2509.17 3079.5,2508.5C 3069.91,2504.52 3060.24,2500.52 3050.5,2496.5C 3050.5,2494.5 3050.5,2492.5 3050.5,2490.5 Z"/></g>
<g><path style="opacity:1" fill="#9691b0" d="M 3029.5,2487.5 C 3036.62,2490.23 3043.62,2493.23 3050.5,2496.5C 3060.24,2500.52 3069.91,2504.52 3079.5,2508.5C 3078.21,2512.73 3078.21,2517.07 3079.5,2521.5C 3078.17,2521.17 3076.83,2520.83 3075.5,2520.5C 3059.93,2514.38 3044.6,2507.72 3029.5,2500.5C 3028.21,2496.07 3028.21,2491.73 3029.5,2487.5 Z"/></g>
<g><path style="opacity:1" fill="#9792b0" d="M 2275.5,2499.5 C 2276.48,2503.63 2276.82,2507.97 2276.5,2512.5C 2259.39,2519.09 2242.06,2525.09 2224.5,2530.5C 2225.09,2526.03 2224.42,2522.03 2222.5,2518.5C 2229.69,2515.66 2237.02,2512.99 2244.5,2510.5C 2254.91,2507.03 2265.24,2503.36 2275.5,2499.5 Z"/></g>
</svg>
