<svg xmlns="http://www.w3.org/2000/svg" width="2197" height="844" viewBox="0 0 2197 844" version="1.1"><path d="M 475.500 14 C 468.497 14.349, 478.491 14.611, 499.500 14.630 C 525.109 14.652, 531.748 14.454, 522.500 13.945 C 507.614 13.124, 492.734 13.142, 475.500 14 M 1672 14 C 1665.384 14.346, 1675.577 14.613, 1696 14.629 C 1721.724 14.649, 1727.782 14.461, 1718 13.947 C 1702.455 13.129, 1688.359 13.145, 1672 14 M 636.270 16.380 L 632.040 17.541 641.270 19.883 C 685.184 31.027, 739.140 54.011, 784.792 81.019 L 799 89.424 799 96.294 L 799 103.163 795.750 101.198 C 743.720 69.733, 692.073 46.930, 640.178 32.511 C 632.852 30.475, 626.589 29.078, 626.262 29.405 C 625.934 29.732, 626.304 30, 627.083 30.001 C 627.862 30.001, 631.425 31.386, 635 33.078 C 638.575 34.769, 650.856 39.278, 662.291 43.096 C 717.664 61.587, 758.321 80.997, 806.500 111.944 C 850.871 140.445, 888.404 171.339, 934.079 216.956 C 972.536 255.363, 1004.058 291.437, 1030 326.727 C 1034.125 332.338, 1037.838 336.945, 1038.250 336.965 C 1038.662 336.984, 1039 332.653, 1039 327.339 L 1039 317.678 1033.282 310.089 C 1018.217 290.092, 1017 288.079, 1016.996 283.145 C 1016.991 277.189, 1016.086 275.795, 1000.021 257 C 942.810 190.068, 884.136 137.259, 820.533 95.454 C 797.628 80.399, 782.771 71.888, 755.998 58.485 C 722.092 41.510, 706.031 34.947, 668.500 22.728 C 646.173 15.458, 642.361 14.708, 636.270 16.380 M 1504 33.455 C 1483.562 40.705, 1429.486 66.943, 1407 80.521 C 1353.582 112.776, 1307.440 149.507, 1256.950 199.966 C 1221.140 235.754, 1193.442 267.928, 1161.512 310.827 L 1148.731 328 1142.615 328.144 C 1136.624 328.285, 1136.666 328.302, 1144.704 329.004 C 1154.553 329.864, 1162.475 333.345, 1167.029 338.814 C 1169.920 342.286, 1170.037 342.334, 1169.035 339.647 C 1167.805 336.350, 1168.986 334.495, 1187.568 310.530 C 1276 196.476, 1377.252 112.498, 1483.153 65.370 C 1513.622 51.811, 1512.357 52.498, 1514.163 48.515 C 1515.039 46.582, 1515.651 45, 1515.523 45 C 1514.705 45, 1483.649 57.647, 1475 61.502 C 1445.606 74.605, 1406.151 96.699, 1376.824 116.479 L 1363 125.803 1363.038 118.651 L 1363.076 111.500 1367.288 108.579 C 1412.236 77.403, 1455.776 54.424, 1507.500 34.578 C 1513.973 32.094, 1515.658 31.128, 1513.500 31.137 C 1511.850 31.143, 1507.575 32.186, 1504 33.455 M 1932.083 65.386 C 1933.100 66.329, 1957 77.963, 1957 77.515 C 1957 76.963, 1933.438 65, 1932.349 65 C 1931.974 65, 1931.854 65.174, 1932.083 65.386 M 2050 142.129 C 2051.925 144.052, 2060.250 152.110, 2068.500 160.036 C 2078.420 169.567, 2080.283 171.130, 2074 164.651 C 2068.775 159.264, 2060.450 151.205, 2055.500 146.744 C 2050.550 142.283, 2048.075 140.206, 2050 142.129 M 819 337.111 C 811.745 339.306, 804.950 347.312, 805.089 353.500 C 805.114 354.600, 805.701 353.691, 806.394 351.479 C 809.578 341.319, 815.207 337.601, 827.500 337.540 C 831.900 337.518, 837.075 337.830, 839 338.233 C 841.790 338.817, 842.120 338.742, 840.627 337.865 C 838.033 336.339, 823.253 335.824, 819 337.111 M 1399.154 337.012 C 1412.111 338.252, 1418.179 343.127, 1419.962 353.729 C 1420.677 357.977, 1420.775 358.117, 1420.860 355 C 1421.166 343.803, 1411.042 335.803, 1397 336.145 C 1391.857 336.271, 1391.997 336.327, 1399.154 337.012 M 1731.143 337.493 C 1725.002 339.409, 1719 345.671, 1719 350.162 C 1719 350.856, 1720.013 349.416, 1721.250 346.962 C 1724.300 340.913, 1729.793 337.974, 1739.846 337.012 L 1747.500 336.280 1741.500 336.207 C 1738.200 336.167, 1733.539 336.745, 1731.143 337.493 M 846.139 342.095 C 850.269 345.990, 853.092 353.308, 851.196 355.204 C 850.414 355.986, 842.965 356.369, 827.530 356.422 C 815.141 356.465, 805.003 356.837, 805.002 357.250 C 805.001 357.663, 815.039 358, 827.309 358 C 853.131 358, 853.658 357.857, 852.524 351.143 C 851.783 346.756, 848.321 341.777, 844.642 339.809 C 843.464 339.178, 844.138 340.207, 846.139 342.095 M 607.136 353.250 C 607.061 354.762, 606.888 356.075, 606.750 356.168 C 606.612 356.260, 595.925 356.620, 583 356.969 L 559.500 357.603 582.059 357.802 C 606.595 358.017, 608.612 357.636, 607.731 352.944 C 607.292 350.606, 607.266 350.619, 607.136 353.250 M 1375.162 360.307 C 1374.864 376.489, 1378.657 383.519, 1389.029 386.007 C 1394.875 387.409, 1405.743 386.879, 1408.613 385.051 C 1410.415 383.903, 1410.410 383.880, 1408.500 384.535 C 1404.603 385.873, 1393.442 386.207, 1389.381 385.108 C 1379.772 382.508, 1376.857 377.594, 1375.971 362.500 L 1375.325 351.500 1375.162 360.307 M 1116.999 357.250 C 1116.999 357.663, 1127.237 357.909, 1139.750 357.799 C 1162.759 357.595, 1160.115 357.228, 1132.249 356.758 C 1123.860 356.616, 1116.998 356.837, 1116.999 357.250 M 1763.138 365 C 1762.882 369.920, 1759.838 376.117, 1756.154 379.217 C 1749.791 384.571, 1735.786 385.298, 1727.494 380.704 C 1724.850 379.240, 1722.740 376.985, 1721.250 374.034 C 1720.013 371.582, 1719 370.280, 1719 371.140 C 1719 373.264, 1722.937 378.899, 1726.010 381.174 C 1727.390 382.196, 1731.362 383.561, 1734.836 384.207 C 1742.226 385.581, 1750.062 384.361, 1755.522 380.986 C 1759.865 378.302, 1764.309 369.563, 1763.731 364.846 L 1763.320 361.500 1763.138 365 M 1420.114 367 C 1419.905 371.634, 1416.767 378.375, 1413.297 381.643 C 1411.105 383.709, 1410.972 384.033, 1412.680 383.141 C 1417.208 380.780, 1421.710 371.171, 1420.733 365.956 C 1420.374 364.043, 1420.237 364.273, 1420.114 367 M 707.457 378.089 C 705.863 381.425, 704.226 384.360, 703.820 384.611 C 703.414 384.862, 702.184 383.365, 701.085 381.284 C 698.701 376.766, 698.405 377.332, 700.513 382.378 C 702.746 387.722, 704.691 386.959, 708.122 379.392 C 711.907 371.044, 711.348 369.948, 707.457 378.089 M 12.405 421.500 C 12.406 430.300, 12.559 433.766, 12.745 429.203 C 12.930 424.639, 12.929 417.439, 12.742 413.203 C 12.555 408.966, 12.404 412.700, 12.405 421.500 M 1761 416.925 C 1752.551 423.215, 1727.465 423.642, 1718.898 417.641 C 1717.680 416.788, 1534.415 416.564, 993.634 416.751 L 270 417.003 270 421.501 L 270 426 1098 426 L 1926 426 1926 421.500 L 1926 417 1844.441 417 C 1790.323 417, 1763.090 416.664, 1763.500 416 C 1764.363 414.603, 1763.876 414.783, 1761 416.925 M 1145.204 494.159 C 1152.929 503.695, 1155.869 514.339, 1156.189 533.934 L 1156.378 545.500 1156.939 536.500 L 1157.500 527.500 1161.560 533 C 1163.794 536.025, 1169.612 543.900, 1174.489 550.500 C 1192.712 575.156, 1214.569 600.755, 1243.813 631.688 C 1293.832 684.597, 1353.247 732.241, 1412.500 766.955 C 1451.512 789.811, 1513.901 817.043, 1527 816.933 C 1530.998 816.899, 1529.660 816.248, 1515 811.092 C 1467.745 794.475, 1424.209 772.784, 1382.243 744.949 L 1371.012 737.500 1371.006 730.750 C 1371.003 727.038, 1371.202 724, 1371.448 724 C 1371.695 724, 1377.698 727.780, 1384.789 732.400 C 1424.901 758.535, 1467.525 780.182, 1510 795.989 C 1531.755 804.085, 1530.957 803.926, 1526.062 799.176 C 1523.480 796.671, 1519.005 793.954, 1514.207 791.979 C 1443.506 762.883, 1390.246 731.662, 1335 686.927 C 1309.444 666.233, 1269.484 629.644, 1270.552 627.915 C 1270.864 627.412, 1269.767 627, 1268.116 627 C 1264.423 627, 1262.046 623.959, 1261.884 619.027 C 1261.820 617.087, 1261.560 616.301, 1261.305 617.280 C 1260.947 618.655, 1258.850 616.952, 1252.072 609.780 C 1228.975 585.341, 1205.278 557.303, 1182.650 527.639 L 1167.500 507.778 1167 513.139 L 1166.500 518.500 1160.559 510 C 1150.626 495.789, 1145.907 489.939, 1144.886 490.571 C 1144.350 490.901, 1143.171 490.571, 1142.266 489.836 C 1141.360 489.101, 1142.682 491.046, 1145.204 494.159 M 1089.500 490.589 C 1093.804 491.272, 1117.352 491.558, 1115 490.899 C 1113.625 490.514, 1106.875 490.216, 1100 490.236 C 1093.125 490.256, 1088.400 490.415, 1089.500 490.589 M 1026.079 521.575 C 961.238 608.214, 890.641 676.670, 812.500 728.678 C 768.469 757.984, 721.464 780.800, 665.670 799.948 C 631.852 811.554, 626.035 815.197, 656.207 805.875 C 702.028 791.718, 745.597 771.931, 793.250 743.636 L 801 739.034 801 745.892 L 801 752.751 790.250 759.236 C 746.299 785.748, 695.416 808.131, 650.798 820.580 L 637.096 824.403 641.298 825.826 C 646.997 827.756, 653.310 826.514, 676.849 818.833 C 793.777 780.679, 903.927 701.325, 1003.814 583.281 L 1015 570.062 1015 563.948 L 1015 557.835 1026.033 543.367 L 1037.067 528.900 1036.783 518.276 L 1036.500 507.651 1026.079 521.575 M 1059.314 515.648 C 1057.925 522.220, 1058.360 592.098, 1059.809 595 L 1061.056 597.500 1060.430 595 C 1059.274 590.393, 1058.776 530.753, 1059.815 521.500 C 1060.889 511.940, 1060.661 509.278, 1059.314 515.648 M 1141.761 529 C 1141.979 536.975, 1142.311 543.950, 1142.499 544.500 C 1143.170 546.456, 1142.751 520.447, 1142.065 517.500 C 1141.680 515.850, 1141.544 521.025, 1141.761 529 M 1356.802 522.867 C 1356.239 532.589, 1353.245 538.324, 1346.350 542.892 C 1343.769 544.601, 1342.117 546, 1342.679 546 C 1345.024 546, 1352.061 539.751, 1354.606 535.409 C 1356.780 531.700, 1357.440 529.107, 1357.802 522.867 C 1358.052 518.540, 1358.032 515, 1357.757 515 C 1357.482 515, 1357.052 518.540, 1356.802 522.867 M 649.967 525.939 C 651.946 529.637, 659.391 534.975, 666.198 537.576 C 670.002 539.029, 673.293 540.040, 673.511 539.823 C 673.729 539.605, 670.440 538.107, 666.203 536.495 C 660.506 534.326, 657.258 532.325, 653.729 528.808 C 651.105 526.193, 649.412 524.902, 649.967 525.939 M 1519.500 540 C 1515.814 544.950, 1512.481 549, 1512.092 549 C 1511.704 549, 1509.238 546.075, 1506.613 542.500 C 1503.988 538.925, 1501.612 536, 1501.334 536 C 1501.055 536, 1502.260 537.913, 1504.012 540.250 C 1505.765 542.587, 1508.166 545.957, 1509.349 547.738 C 1510.532 549.518, 1511.756 550.981, 1512.069 550.988 C 1512.381 550.994, 1514.815 547.962, 1517.476 544.250 C 1520.137 540.538, 1523.422 536.038, 1524.776 534.250 C 1526.130 532.462, 1527.004 531, 1526.719 531 C 1526.434 531, 1523.186 535.050, 1519.500 540 M 1301 549 L 1275.500 549.552 1301.500 549.718 C 1315.800 549.810, 1329.300 549.512, 1331.500 549.057 L 1335.500 548.230 1331 548.339 C 1328.525 548.399, 1315.025 548.696, 1301 549 M 694.500 559.928 C 712.517 566.184, 722.598 573.652, 725.425 582.837 C 726.215 585.401, 726.882 586.600, 726.908 585.500 C 727.049 579.617, 720.095 571.031, 710.875 565.702 C 706.405 563.119, 689.784 556.939, 687.670 557.075 C 687.027 557.117, 690.100 558.401, 694.500 559.928 M 1285.803 561.746 C 1291.470 561.925, 1300.470 561.924, 1305.803 561.745 C 1311.136 561.565, 1306.500 561.419, 1295.500 561.420 C 1284.500 561.421, 1280.136 561.568, 1285.803 561.746 M 1519.445 594.500 C 1519.444 611.550, 1519.581 618.666, 1519.748 610.312 C 1519.915 601.959, 1519.915 588.009, 1519.748 579.312 C 1519.582 570.616, 1519.445 577.450, 1519.445 594.500 M 1141.126 590 C 1140.883 594.172, 1136.134 603.233, 1131.693 608 L 1127.500 612.500 1132.173 608.117 C 1137.271 603.336, 1142.414 593.410, 1141.703 589.727 C 1141.303 587.658, 1141.262 587.677, 1141.126 590 M 1116.500 616.140 C 1114.850 616.672, 1108.325 617.466, 1102 617.904 C 1090.789 618.681, 1090.703 618.705, 1098.566 618.851 C 1106.670 619.001, 1117.205 617.568, 1120 615.936 C 1121.927 614.812, 1120.329 614.905, 1116.500 616.140 M 107.487 662.974 C 115.096 671.613, 132.548 689.185, 141.500 697.221 C 147.336 702.459, 146.209 701.188, 138.294 693.605 C 131.581 687.174, 121.006 676.632, 114.794 670.179 C 108.582 663.727, 105.294 660.484, 107.487 662.974 M 485.750 828.748 C 494.137 828.915, 507.863 828.915, 516.250 828.748 C 524.638 828.581, 517.775 828.444, 501 828.444 C 484.225 828.444, 477.363 828.581, 485.750 828.748" stroke="none" fill="#e6b49f" fill-rule="evenodd"/><path d="M 465.500 1.999 C 401.641 6.124, 342.773 19.061, 286 41.446 C 269.119 48.102, 234.326 64.863, 218.500 73.964 C 121.523 129.733, 50.086 212.860, 18.888 306.245 C 10.504 331.338, 5.019 356.027, 1.835 383 C 0.132 397.423, 0.137 446.521, 1.842 460.500 C 12.551 548.272, 50.915 625.121, 116.932 691.045 C 156.026 730.084, 197.682 759.420, 250.445 785.071 C 353.348 835.097, 474.784 852.805, 589 834.438 C 657.583 823.409, 726.651 797.600, 790.250 759.236 L 801 752.751 801 745.892 L 801 739.034 793.250 743.636 C 727.660 782.581, 667.028 806.665, 602.500 819.405 C 570.449 825.732, 547.737 828.054, 511.458 828.711 C 455.594 829.722, 411.803 824.744, 358.500 811.322 C 321.745 802.067, 288.966 789.949, 253.500 772.506 C 201.075 746.720, 164.323 720.583, 124.969 681.094 C 62.557 618.471, 25.984 546.476, 14.874 464.371 C 12.282 445.219, 11.739 404.384, 13.838 386.500 C 21.343 322.552, 43.131 266.119, 80.788 213.088 C 148.757 117.372, 262.896 47.955, 392.500 23.512 C 453.878 11.936, 518.899 10.388, 577 19.121 C 650.996 30.243, 725.534 58.202, 795.750 101.174 L 799 103.163 799 96.294 L 799 89.424 784.792 81.019 C 710.657 37.159, 632.394 11.239, 551 3.586 C 531.792 1.780, 482.934 0.873, 465.500 1.999 M 1643.153 3.502 C 1545.041 13.585, 1454.558 48.050, 1367.288 108.579 L 1363.076 111.500 1363.038 118.651 L 1363 125.803 1376.824 116.479 C 1497.540 35.061, 1624.976 1.897, 1759 17.022 C 1870.882 29.648, 1971.915 72.856, 2049.500 141.259 C 2085.675 173.153, 2115.235 209.520, 2137.920 250.044 C 2160.456 290.298, 2174.478 333.405, 2181.169 383 C 2182.910 395.903, 2182.913 445.228, 2181.174 459 C 2172.222 529.879, 2146.177 590.826, 2100.406 648 C 2017.487 751.577, 1882.969 817.389, 1732.500 827.996 C 1714.170 829.288, 1672.941 829.272, 1655.950 827.967 C 1561.692 820.725, 1471.638 788.987, 1384.789 732.400 C 1377.698 727.780, 1371.695 724, 1371.448 724 C 1371.202 724, 1371.003 727.038, 1371.006 730.750 L 1371.012 737.500 1382.243 744.949 C 1484.746 812.936, 1600.488 846.137, 1717.073 840.997 C 1729.864 840.433, 1746.893 839.290, 1754.915 838.457 C 1919.949 821.324, 2061.301 739.024, 2139.564 614.500 C 2148.153 600.834, 2164.179 569.148, 2169.910 554.500 C 2187.389 509.822, 2195.012 469.333, 2194.989 421.278 C 2194.975 390.081, 2192.919 371.039, 2186.378 341.500 C 2167.899 258.050, 2116.340 178.416, 2042 118.505 C 1972.963 62.867, 1888.709 25.690, 1794.964 9.499 C 1761.188 3.666, 1749.785 2.807, 1701.500 2.457 C 1668.465 2.217, 1652.951 2.495, 1643.153 3.502 M 1422 298.499 C 1421.450 299.946, 1421 308.933, 1421 318.469 L 1421 335.808 1415.250 332.685 C 1410.190 329.938, 1408.346 329.516, 1399.887 329.171 C 1386.564 328.627, 1380.067 330.560, 1373.934 336.895 C 1370.836 340.096, 1368.916 343.199, 1367.959 346.555 C 1366.166 352.840, 1366.127 370.027, 1367.892 376.208 C 1369.694 382.521, 1374.769 388.199, 1381.206 391.108 C 1385.803 393.185, 1388.014 393.500, 1398.002 393.500 C 1408.478 393.500, 1409.990 393.260, 1414.948 390.806 C 1420.281 388.167, 1420.418 388.152, 1421.752 390.056 C 1423.278 392.234, 1426.975 392.625, 1428.800 390.800 C 1430.102 389.498, 1430.289 343.065, 1429.115 312.500 L 1428.500 296.500 1425.750 296.184 C 1423.557 295.931, 1422.799 296.399, 1422 298.499 M 1501 306.694 C 1496.764 308.208, 1495.657 314.475, 1499.080 317.572 C 1502.161 320.361, 1508.680 320.114, 1511.107 317.116 C 1513.753 313.848, 1513.481 310.523, 1510.365 308.073 C 1507.841 306.087, 1504.199 305.551, 1501 306.694 M 445.034 329.036 C 442.578 329.550, 438.415 331.308, 435.784 332.943 L 431 335.917 431 333.581 C 431 330.629, 428.786 328.751, 425.805 329.173 C 423.778 329.461, 423.423 330.223, 422.859 335.500 C 422.506 338.800, 422.217 350.050, 422.217 360.500 C 422.217 370.950, 422.506 382.200, 422.859 385.500 C 423.482 391.335, 423.581 391.500, 426.455 391.500 C 430.489 391.500, 430.777 390.018, 430.922 368.500 C 431.025 353.255, 431.329 349.873, 432.905 346.401 C 436.233 339.073, 442.699 335.852, 454.093 335.846 C 465.620 335.840, 471.620 338.880, 475.119 346.500 C 476.668 349.872, 476.975 353.326, 477.078 368.500 C 477.145 378.400, 477.510 387.625, 477.889 389 C 478.843 392.455, 483.389 393.010, 485.067 389.875 C 486.668 386.884, 485.688 351.173, 483.850 345.500 C 482.112 340.140, 473.687 331.778, 468.500 330.266 C 462.782 328.599, 450.266 327.944, 445.034 329.036 M 672.170 329.061 C 670.215 329.844, 669.945 330.473, 670.492 332.965 C 671.359 336.910, 691.599 384.581, 694.209 388.823 C 696.412 392.403, 699.437 394, 704.018 394 C 709.710 394, 711.547 392.229, 716.318 382.145 C 723.922 366.073, 737 334.447, 737 332.132 C 737 329.381, 733.003 327.339, 730.433 328.777 C 729.370 329.373, 724.161 340.628, 717.539 356.638 C 711.430 371.412, 706.067 384.087, 705.622 384.805 C 703.521 388.198, 701.371 384.404, 690.661 358.403 C 684.523 343.499, 678.882 330.562, 678.128 329.653 C 676.593 327.805, 675.559 327.702, 672.170 329.061 M 1260.034 329.036 C 1257.578 329.550, 1253.415 331.308, 1250.784 332.943 L 1246 335.917 1246 333.581 C 1246 330.629, 1243.786 328.751, 1240.805 329.173 C 1238.778 329.461, 1238.423 330.223, 1237.859 335.500 C 1237.506 338.800, 1237.217 350.050, 1237.217 360.500 C 1237.217 370.950, 1237.506 382.200, 1237.859 385.500 C 1238.482 391.335, 1238.581 391.500, 1241.455 391.500 C 1245.489 391.500, 1245.777 390.018, 1245.922 368.500 C 1246.025 353.255, 1246.329 349.873, 1247.905 346.401 C 1251.233 339.073, 1257.699 335.852, 1269.093 335.846 C 1280.620 335.840, 1286.620 338.880, 1290.119 346.500 C 1291.668 349.872, 1291.975 353.326, 1292.078 368.500 C 1292.145 378.400, 1292.510 387.625, 1292.889 389 C 1293.843 392.455, 1298.389 393.010, 1300.067 389.875 C 1301.668 386.884, 1300.688 351.173, 1298.850 345.500 C 1297.112 340.140, 1288.687 331.778, 1283.500 330.266 C 1277.782 328.599, 1265.266 327.944, 1260.034 329.036 M 1503 328.978 C 1501.736 329.776, 1501.449 334.442, 1501.179 358.612 C 1501.003 374.391, 1501.124 388.358, 1501.448 389.650 C 1501.899 391.444, 1502.727 392, 1504.952 392 C 1506.850 392, 1508.057 391.390, 1508.417 390.250 C 1508.720 389.288, 1509.079 375.621, 1509.214 359.879 C 1509.410 337.019, 1509.187 330.931, 1508.107 329.629 C 1506.575 327.783, 1505.174 327.605, 1503 328.978 M 1602.034 329.036 C 1599.578 329.550, 1595.415 331.308, 1592.784 332.943 L 1588 335.917 1588 333.581 C 1588 330.629, 1585.786 328.751, 1582.805 329.173 C 1580.778 329.461, 1580.423 330.223, 1579.859 335.500 C 1579.506 338.800, 1579.217 350.050, 1579.217 360.500 C 1579.217 370.950, 1579.506 382.200, 1579.859 385.500 C 1580.482 391.335, 1580.581 391.500, 1583.455 391.500 C 1587.489 391.500, 1587.777 390.018, 1587.922 368.500 C 1588.025 353.255, 1588.329 349.873, 1589.905 346.401 C 1593.233 339.073, 1599.699 335.852, 1611.093 335.846 C 1622.620 335.840, 1628.620 338.880, 1632.119 346.500 C 1633.668 349.872, 1633.975 353.326, 1634.078 368.500 C 1634.145 378.400, 1634.510 387.625, 1634.889 389 C 1635.843 392.455, 1640.389 393.010, 1642.067 389.875 C 1643.668 386.884, 1642.688 351.173, 1640.850 345.500 C 1639.112 340.140, 1630.687 331.778, 1625.500 330.266 C 1619.782 328.599, 1607.266 327.944, 1602.034 329.036 M 569.332 330.851 C 562.199 333.316, 557.963 336.823, 554.501 343.130 C 551.864 347.933, 551.512 349.630, 551.168 359.200 C 550.537 376.694, 554.448 385.127, 565.770 390.686 C 571.193 393.349, 572.223 393.500, 585 393.500 C 595.797 393.500, 599.501 393.122, 603.500 391.613 C 610.058 389.138, 612.166 387.217, 611.797 384.052 C 611.547 381.906, 611.022 381.525, 608.500 381.658 C 606.850 381.745, 602.350 382.971, 598.500 384.382 C 590.284 387.394, 581.044 387.796, 573.248 385.481 C 565.358 383.138, 560.273 376.525, 560.076 368.348 L 560 365.197 586.089 364.848 L 612.178 364.500 614.204 362 C 615.906 359.901, 616.151 358.504, 615.734 353.290 C 614.849 342.231, 607.791 333.797, 596.655 330.490 C 589.699 328.424, 575.824 328.608, 569.332 330.851 M 814.332 330.851 C 807.199 333.316, 802.963 336.823, 799.501 343.130 C 796.864 347.933, 796.512 349.630, 796.168 359.200 C 795.537 376.694, 799.448 385.127, 810.770 390.686 C 816.193 393.349, 817.223 393.500, 830 393.500 C 840.797 393.500, 844.501 393.122, 848.500 391.613 C 855.058 389.138, 857.166 387.217, 856.797 384.052 C 856.547 381.906, 856.022 381.525, 853.500 381.658 C 851.850 381.745, 847.350 382.971, 843.500 384.382 C 835.284 387.394, 826.044 387.796, 818.248 385.481 C 810.358 383.138, 805.273 376.525, 805.076 368.348 L 805 365.197 831.089 364.848 L 857.178 364.500 859.204 362 C 860.906 359.901, 861.151 358.504, 860.734 353.290 C 859.849 342.231, 852.791 333.797, 841.655 330.490 C 834.699 328.424, 820.824 328.608, 814.332 330.851 M 944.500 330.178 C 942.850 330.754, 939.813 332.546, 937.750 334.160 L 934 337.094 934 334.747 C 934 331.659, 932.223 330, 928.915 330 C 926.403 330, 926.185 330.362, 925.527 335.634 C 924.826 341.238, 925.680 385.457, 926.571 389.750 C 926.929 391.476, 927.733 392, 930.019 392 C 931.659 392, 933.068 391.887, 933.150 391.750 C 933.233 391.613, 933.570 382.464, 933.900 371.419 L 934.500 351.338 937.515 346.463 C 942.041 339.147, 948.651 336, 959.489 336 C 964.033 336, 969.180 335.714, 970.928 335.364 C 973.640 334.822, 974.062 334.345, 973.803 332.114 L 973.500 329.500 960.500 329.315 C 953.350 329.213, 946.150 329.601, 944.500 330.178 M 1126.332 330.851 C 1119.211 333.312, 1114.972 336.816, 1111.474 343.130 C 1108.603 348.314, 1108.500 348.951, 1108.500 361.500 C 1108.500 373.775, 1108.655 374.793, 1111.272 379.759 C 1116.929 390.495, 1126.487 394.479, 1145.003 393.819 C 1155.482 393.445, 1157.295 393.098, 1162.593 390.451 C 1167.834 387.833, 1168.500 387.162, 1168.500 384.500 C 1168.500 381.798, 1168.202 381.516, 1165.500 381.658 C 1163.850 381.745, 1159.350 382.971, 1155.500 384.382 C 1147.284 387.394, 1138.044 387.796, 1130.248 385.481 C 1122.354 383.137, 1117.273 376.524, 1117.076 368.337 L 1117 365.174 1143.089 364.837 L 1169.179 364.500 1171.205 362 C 1172.905 359.901, 1173.151 358.504, 1172.734 353.290 C 1171.849 342.231, 1164.791 333.797, 1153.655 330.490 C 1146.699 328.424, 1132.824 328.608, 1126.332 330.851 M 1726 330.900 C 1719.084 333.343, 1712.894 339.812, 1710.899 346.682 C 1709.170 352.636, 1709.137 369.193, 1710.844 374.171 C 1713.044 380.585, 1717.457 385.587, 1723.542 388.564 C 1728.735 391.105, 1730.170 391.341, 1740.044 391.279 C 1751.038 391.210, 1751.899 390.985, 1763.250 385.215 C 1764.592 384.532, 1764.046 399.954, 1762.606 403.400 C 1760.977 407.300, 1756.066 411.251, 1750.718 412.964 C 1742.194 415.696, 1728.483 413.833, 1720.266 408.827 C 1715.661 406.021, 1712.500 406.683, 1712.500 410.452 C 1712.500 416.527, 1725.297 422, 1739.500 422 C 1754.441 422, 1765.538 416.682, 1770.098 407.335 C 1772.415 402.586, 1772.464 401.871, 1772.841 367.238 C 1773.255 329.172, 1773.184 328.607, 1768.086 329.199 C 1766.181 329.421, 1765.261 330.309, 1764.594 332.569 L 1763.688 335.639 1758.094 332.591 C 1753.022 329.827, 1751.520 329.515, 1742 329.250 C 1733.615 329.017, 1730.392 329.349, 1726 330.900 M 574 337.111 C 566.184 339.475, 560.073 347.187, 560.022 354.750 L 560 358 582.309 358 C 608.131 358, 608.658 357.857, 607.524 351.143 C 606.660 346.028, 603.130 341.617, 597.672 338.833 C 592.903 336.400, 579.559 335.429, 574 337.111 M 819 337.111 C 811.184 339.475, 805.073 347.187, 805.022 354.750 L 805 358 827.309 358 C 853.131 358, 853.658 357.857, 852.524 351.143 C 851.660 346.028, 848.130 341.617, 842.672 338.833 C 837.903 336.400, 824.559 335.429, 819 337.111 M 1131 337.111 C 1123.184 339.475, 1117.073 347.187, 1117.022 354.750 L 1117 358 1139.309 358 C 1165.131 358, 1165.658 357.857, 1164.524 351.143 C 1163.660 346.028, 1160.130 341.617, 1154.672 338.833 C 1149.903 336.400, 1136.559 335.429, 1131 337.111 M 1387.854 337.570 C 1382.390 339.252, 1377.596 344.192, 1376.060 349.723 C 1374.667 354.739, 1374.715 367.983, 1376.147 373.671 C 1378.506 383.037, 1387.344 387.808, 1400.396 386.760 C 1410.749 385.929, 1416.980 381.554, 1419.847 373.101 C 1421.731 367.547, 1421.277 352.208, 1419.087 347.384 C 1414.690 337.702, 1401.196 333.462, 1387.854 337.570 M 1730.854 337.570 C 1725.219 339.304, 1720.548 344.266, 1718.927 350.237 C 1717.398 355.865, 1718.245 370.639, 1720.326 374.664 C 1725.435 384.543, 1741.792 387.980, 1753.943 381.726 C 1760.747 378.225, 1764 371.400, 1764 360.629 C 1764 350.424, 1762.890 346.513, 1758.794 342.287 C 1753.150 336.464, 1741.070 334.425, 1730.854 337.570 M 671.107 478.161 C 658.148 480.014, 646.037 485.602, 640.363 492.345 C 635.471 498.159, 633.767 503.639, 633.628 514 C 633.513 522.533, 633.786 524.083, 636.311 529.224 C 637.857 532.373, 641.007 536.594, 643.311 538.606 C 649.591 544.088, 663.729 550.331, 680.306 554.941 C 698.312 559.949, 707.008 563.155, 712.974 566.984 C 722.760 573.264, 727.004 579.994, 726.994 589.218 C 726.987 596.714, 725.540 601.009, 721.392 605.855 C 714.243 614.207, 703.737 617.513, 684.500 617.466 C 667.075 617.422, 657.856 614.689, 638.673 603.880 L 634.846 601.724 632.173 603.711 C 627.977 606.830, 628.090 610.994, 632.476 614.844 C 641.901 623.120, 659.955 628.748, 680.097 629.687 C 710.018 631.083, 729.699 623.296, 737.942 606.799 C 740.782 601.117, 741 599.916, 741 589.962 C 741 577.271, 739.883 573.927, 733.283 566.872 C 724.965 557.979, 711.570 551.470, 686 543.895 C 664.513 537.530, 659.276 535.277, 653.944 530.103 C 641.088 517.630, 646.586 497.178, 664.292 491.609 C 672.726 488.956, 686.065 487.822, 695.335 488.970 C 699.826 489.526, 709.224 491.845, 716.221 494.124 C 728.519 498.131, 729.027 498.212, 731.529 496.573 C 733.566 495.238, 734.052 494.203, 733.809 491.713 C 733.565 489.215, 732.658 488.070, 729.500 486.272 C 716.738 479.005, 690.596 475.374, 671.107 478.161 M 1082.500 479.525 C 1061.608 483.405, 1049.640 494.804, 1045.933 514.353 C 1045.420 517.059, 1045 535.210, 1045 554.689 C 1045 594.232, 1045.546 598.944, 1051.349 609.500 C 1059.532 624.387, 1081.295 632.555, 1107.362 630.523 C 1135.248 628.350, 1149.888 617.250, 1154.655 594.668 C 1156.878 584.139, 1156.869 525.572, 1154.643 515.172 C 1150.576 496.167, 1140.518 485.548, 1121.661 480.349 C 1113.853 478.197, 1092.113 477.739, 1082.500 479.525 M 1451.635 480.073 C 1450.125 481.260, 1449 483.148, 1449 484.492 C 1449 485.982, 1459.203 500.876, 1476.934 525.267 L 1504.868 563.695 1505.184 594.929 C 1505.483 624.496, 1505.604 626.239, 1507.441 627.582 C 1510.024 629.469, 1515.472 629.385, 1517.429 627.429 C 1518.789 626.068, 1519 621.732, 1519 595.145 L 1519 564.434 1544.750 528.949 C 1571.728 491.771, 1576 485.642, 1576 484.110 C 1576 482.624, 1570.020 478, 1568.098 478 C 1565.504 478, 1564.277 479.547, 1537.547 516.500 C 1524.021 535.200, 1512.626 550.590, 1512.227 550.700 C 1511.827 550.810, 1500.925 536.197, 1488 518.226 C 1462.609 482.923, 1458.695 478, 1456.018 478 C 1455.057 478, 1453.084 478.933, 1451.635 480.073 M 834.761 480.681 C 829.239 481.017, 827.824 481.461, 826.926 483.139 C 825.533 485.740, 826.459 489.539, 828.741 490.586 C 829.709 491.030, 842.313 491.568, 856.750 491.782 L 883 492.172 883 558.363 C 883 632.574, 882.651 629, 889.902 629 C 897.440 629, 897 633.353, 897 558.787 L 897 492.232 924.097 491.843 C 949.406 491.480, 951.288 491.327, 952.597 489.536 C 953.369 488.481, 954 486.634, 954 485.431 C 954 480.551, 954.446 480.590, 896.144 480.425 C 866.090 480.340, 838.467 480.455, 834.761 480.681 M 1276.773 481 C 1263.151 481.780, 1263.644 480.761, 1262.852 509.776 C 1262.496 522.824, 1262.159 553.537, 1262.102 578.027 C 1261.987 628.203, 1261.820 627, 1268.902 627 C 1276.058 627, 1276 627.286, 1276 592.171 L 1276 561 1295.250 561.025 L 1314.500 561.050 1332.500 588.215 C 1357.940 626.608, 1358.243 627, 1362.427 627 C 1366.256 627, 1369 624.866, 1369 621.889 C 1369 618.782, 1366.236 614.179, 1348.053 587 L 1330.993 561.500 1338.477 559.777 C 1362.597 554.223, 1373.873 538.489, 1371.133 514.210 C 1369.175 496.859, 1360.075 487.157, 1341.500 482.619 C 1335.132 481.063, 1293.740 480.028, 1276.773 481 M 1084 491.431 C 1069.297 495.522, 1061.177 504.590, 1058.854 519.510 C 1058.229 523.524, 1057.975 539.308, 1058.213 559.330 C 1058.584 590.529, 1058.737 592.827, 1060.784 598 C 1063.654 605.257, 1067.663 609.954, 1073.864 613.329 C 1086.314 620.105, 1108.822 620.863, 1122.571 614.970 C 1129.198 612.129, 1136.277 604.973, 1139.620 597.734 L 1142.500 591.500 1142.500 554 C 1142.500 517.216, 1142.456 516.392, 1140.206 510.826 C 1136.301 501.162, 1128.153 494.472, 1116.500 491.359 C 1110.245 489.688, 1090.103 489.733, 1084 491.431 M 1276.667 492.667 C 1276.300 493.033, 1276 506.119, 1276 521.747 L 1276 550.161 1304.750 549.798 C 1331.319 549.463, 1333.944 549.270, 1339.355 547.257 C 1346.980 544.419, 1351.313 541.025, 1354.728 535.216 C 1357.203 531.006, 1357.500 529.535, 1357.500 521.500 C 1357.500 513.668, 1357.137 511.760, 1354.701 506.801 C 1352.897 503.127, 1350.412 500.005, 1347.709 498.017 C 1340.230 492.517, 1336.599 492, 1305.485 492 C 1290.002 492, 1277.033 492.300, 1276.667 492.667" stroke="none" fill="#9c91b3" fill-rule="evenodd"/></svg>